<svg width="195" height="17" viewBox="0 0 195 17" fill="none" xmlns="http://www.w3.org/2000/svg">
<path d="M7.89984 16.4927C6.8191 16.4927 5.80685 16.2872 4.8631 15.8763C3.91935 15.45 3.08976 14.864 2.37433 14.1181C1.65891 13.3723 1.0957 12.5122 0.684714 11.538C0.288948 10.5486 0.0910645 9.49833 0.0910645 8.38714C0.0910645 7.27595 0.288948 6.22564 0.684714 5.23623C1.08048 4.24681 1.63608 3.37156 2.3515 2.61047C3.06693 1.83416 3.89651 1.22528 4.84026 0.783852C5.78402 0.34242 6.80388 0.121704 7.89984 0.121704C9.23936 0.121704 10.4875 0.448973 11.6444 1.10351C12.8013 1.75805 13.8059 2.74746 14.6583 4.07176L12.2381 5.64721C11.6596 4.73391 10.9975 4.07176 10.2516 3.66077C9.50574 3.23456 8.72182 3.02146 7.89984 3.02146C6.97132 3.02146 6.13412 3.265 5.38825 3.7521C4.6576 4.2392 4.07156 4.89374 3.63013 5.71571C3.20392 6.52247 2.99082 7.41294 2.99082 8.38714C2.99082 9.0569 3.1202 9.70382 3.37897 10.3279C3.63774 10.952 3.98784 11.5152 4.42928 12.0175C4.88593 12.5046 5.41108 12.8928 6.00473 13.182C6.59838 13.4712 7.23009 13.6158 7.89984 13.6158C8.87404 13.6158 9.65035 13.4864 10.2288 13.2277C10.8224 12.9689 11.3247 12.5275 11.7357 11.9034V10.8531H9.15564V8.15881H14.6355V12.634C13.981 13.9888 13.0981 14.9706 11.9869 15.5794C10.8757 16.1883 9.51336 16.4927 7.89984 16.4927Z" fill="#2E296D"/>
<path d="M27.4166 11.6294H19.4252C19.4861 12.3144 19.7448 12.8395 20.2015 13.2048C20.6581 13.5702 21.2214 13.7833 21.8911 13.8441C22.5609 13.8898 23.2459 13.7985 23.9461 13.5702C24.6615 13.3266 25.3008 12.9613 25.864 12.4742L27.371 14.552C26.5338 15.2522 25.6813 15.7545 24.8137 16.0589C23.9613 16.3481 23.1165 16.4927 22.2793 16.4927C20.3461 16.4927 18.8924 15.9524 17.9182 14.8716C16.9592 13.7909 16.4798 12.2611 16.4798 10.2823C16.4798 9.15584 16.7005 8.17403 17.1419 7.33683C17.5986 6.49963 18.2379 5.85271 19.0599 5.39605C19.8971 4.9394 20.8789 4.71868 22.0053 4.73391C24.4712 4.76435 26.1152 5.73093 26.9371 7.63366C27.1655 8.18164 27.3101 8.7829 27.371 9.43744C27.4471 10.092 27.4623 10.8226 27.4166 11.6294ZM22.2564 7.29117C21.3279 7.29117 20.6201 7.54233 20.133 8.04465C19.6611 8.54697 19.4252 9.10256 19.4252 9.71143H25.0649C25.0649 9.08734 24.8213 8.53174 24.3342 8.04465C23.8623 7.54233 23.1697 7.29117 22.2564 7.29117Z" fill="#2E296D"/>
<path d="M29.3009 14.7346L30.8991 13.0222C31.7059 13.7224 32.5355 14.0725 33.3879 14.0725C33.6315 14.0725 33.8522 14.0496 34.0501 14.004C34.2632 13.9431 34.4382 13.8518 34.5752 13.73C34.7579 13.5625 34.8644 13.3647 34.8949 13.1363C34.9253 12.8928 34.9253 12.6949 34.8949 12.5427C34.834 12.2687 34.6437 12.0556 34.324 11.9034C34.0196 11.7359 33.6391 11.5913 33.1824 11.4696C32.741 11.3326 32.2843 11.1651 31.8124 10.9672C31.3406 10.7693 30.922 10.503 30.5567 10.1681C29.963 9.60488 29.6205 9.01123 29.5292 8.38714C29.4531 7.74782 29.5748 7.15417 29.8945 6.60619C30.2294 6.0582 30.7165 5.61677 31.3558 5.28189C31.9951 4.93179 32.741 4.75674 33.5934 4.75674C34.4002 4.75674 35.1232 4.90135 35.7625 5.19056C36.4018 5.46455 36.9117 5.82227 37.2923 6.2637L35.557 7.81632C35.3135 7.58799 35.009 7.42055 34.6437 7.314C34.2936 7.19223 33.9511 7.13134 33.6162 7.13134C33.2661 7.13134 32.9617 7.20745 32.7029 7.35967C32.4442 7.49666 32.3148 7.74021 32.3148 8.09031C32.3148 8.3643 32.4213 8.58502 32.6344 8.75246C32.8475 8.9199 33.1215 9.06451 33.4564 9.18628C33.8065 9.30806 34.1794 9.43744 34.5752 9.57444C34.9862 9.69621 35.3743 9.85604 35.7397 10.0539C36.2115 10.2975 36.6073 10.6476 36.927 11.1042C37.2466 11.5457 37.4065 12.1241 37.4065 12.8395C37.4065 13.6158 37.2162 14.2704 36.8356 14.8031C36.4703 15.3359 35.9832 15.7469 35.3743 16.0361C34.7655 16.3101 34.0957 16.4471 33.3651 16.4471C32.6496 16.4471 31.9342 16.3101 31.2188 16.0361C30.5186 15.7469 29.8793 15.3131 29.3009 14.7346Z" fill="#2E296D"/>
<path d="M49.361 16.2872H46.6211V9.71143C46.6211 8.93512 46.4156 8.37192 46.0046 8.02181C45.6088 7.67171 45.0608 7.49666 44.3606 7.49666C43.7213 7.49666 43.2038 7.70216 42.808 8.11315C42.4274 8.50891 42.2372 8.92751 42.2372 9.36894V16.2872H39.4973V0.304365H42.2372V5.48739C42.6025 5.18295 43.0363 4.98507 43.5386 4.89374C44.0562 4.78718 44.5889 4.75674 45.1369 4.8024C46.5221 4.96984 47.5724 5.50261 48.2878 6.40069C49.0033 7.28356 49.361 8.38714 49.361 9.71143V16.2872Z" fill="#2E296D"/>
<path d="M54.7133 16.4014C53.5564 16.3405 52.6812 16.0133 52.0875 15.4196C51.4939 14.8107 51.197 13.9735 51.197 12.908C51.197 12.1317 51.3949 11.4696 51.7907 10.9216C52.1865 10.3584 52.7116 9.91693 53.3662 9.59727C54.0207 9.27761 54.7437 9.07973 55.5353 9.00362C56.342 8.92751 57.1564 8.98079 57.9784 9.16345V8.45564C57.9784 7.96854 57.7805 7.61844 57.3847 7.40533C56.9889 7.19223 56.5018 7.09328 55.9234 7.10851C55.3602 7.12373 54.7894 7.23789 54.211 7.451C53.6478 7.64888 53.1911 7.93809 52.841 8.31864L51.3112 6.65185C51.8896 6.08865 52.5746 5.64721 53.3662 5.32756C54.1577 5.0079 54.9721 4.82524 55.8092 4.77957C56.6617 4.73391 57.4608 4.83285 58.2067 5.0764C58.9678 5.31995 59.5919 5.71571 60.079 6.2637C60.4595 6.68991 60.6726 7.25311 60.7183 7.95332C60.7639 8.65352 60.7868 9.42222 60.7868 10.2594V16.2872H58.0012V15.2369C57.5293 15.6784 57.0042 15.9904 56.4257 16.1731C55.8473 16.3405 55.2765 16.4166 54.7133 16.4014ZM57.9099 13.0678V11.1042C56.3268 10.9825 55.2232 11.0814 54.5991 11.4011C53.9902 11.7207 53.6858 12.2154 53.6858 12.8852C53.6858 13.3114 53.8304 13.6234 54.1196 13.8213C54.4241 14.004 54.797 14.0953 55.2384 14.0953C55.6951 14.0801 56.1594 13.9888 56.6312 13.8213C57.1183 13.6387 57.5445 13.3875 57.9099 13.0678Z" fill="#2E296D"/>
<path d="M73.3394 16.2872H70.5995V9.6201C70.5995 8.99601 70.4777 8.53174 70.2342 8.22731C70.0058 7.90765 69.7166 7.69455 69.3665 7.58799C69.0316 7.48144 68.7044 7.42816 68.3847 7.42816C68.0803 7.42816 67.7226 7.48144 67.3116 7.58799C66.9158 7.69455 66.5657 7.90765 66.2613 8.22731C65.9568 8.53174 65.8046 8.99601 65.8046 9.6201V16.2872H63.0647V4.8709H65.8046V5.69288C66.0634 5.34278 66.4668 5.09923 67.0147 4.96223C67.5627 4.81002 68.0879 4.73391 68.5902 4.73391C69.5644 4.73391 70.4016 4.9394 71.1018 5.35039C71.8172 5.76138 72.3652 6.3322 72.7458 7.06284C73.1415 7.79349 73.3394 8.64591 73.3394 9.6201V16.2872Z" fill="#2E296D"/>
<path d="M84.069 16.2872V0.304365H88.4985L92.2659 10.3964L96.0333 0.304365H100.463V16.2872H97.7229V3.66077L93.5674 14.004H90.9873L86.8089 3.66077V16.2872H84.069Z" fill="#2E296D"/>
<path d="M106.042 16.4014C104.885 16.3405 104.01 16.0133 103.416 15.4196C102.823 14.8107 102.526 13.9735 102.526 12.908C102.526 12.1317 102.724 11.4696 103.12 10.9216C103.515 10.3584 104.041 9.91693 104.695 9.59727C105.35 9.27761 106.073 9.07973 106.864 9.00362C107.671 8.92751 108.485 8.98079 109.307 9.16345V8.45564C109.307 7.96854 109.109 7.61844 108.714 7.40533C108.318 7.19223 107.831 7.09328 107.252 7.10851C106.689 7.12373 106.118 7.23789 105.54 7.451C104.977 7.64888 104.52 7.93809 104.17 8.31864L102.64 6.65185C103.219 6.08865 103.904 5.64721 104.695 5.32756C105.487 5.0079 106.301 4.82524 107.138 4.77957C107.991 4.73391 108.79 4.83285 109.536 5.0764C110.297 5.31995 110.921 5.71571 111.408 6.2637C111.788 6.68991 112.002 7.25311 112.047 7.95332C112.093 8.65352 112.116 9.42222 112.116 10.2594V16.2872H109.33V15.2369C108.858 15.6784 108.333 15.9904 107.755 16.1731C107.176 16.3405 106.605 16.4166 106.042 16.4014ZM109.239 13.0678V11.1042C107.656 10.9825 106.552 11.0814 105.928 11.4011C105.319 11.7207 105.015 12.2154 105.015 12.8852C105.015 13.3114 105.159 13.6234 105.449 13.8213C105.753 14.004 106.126 14.0953 106.567 14.0953C107.024 14.0801 107.488 13.9888 107.96 13.8213C108.447 13.6387 108.873 13.3875 109.239 13.0678Z" fill="#2E296D"/>
<path d="M124.668 16.2872H121.928V9.6201C121.928 8.99601 121.807 8.53174 121.563 8.22731C121.335 7.90765 121.046 7.69455 120.695 7.58799C120.361 7.48144 120.033 7.42816 119.714 7.42816C119.409 7.42816 119.052 7.48144 118.641 7.58799C118.245 7.69455 117.895 7.90765 117.59 8.22731C117.286 8.53174 117.134 8.99601 117.134 9.6201V16.2872H114.394V4.8709H117.134V5.69288C117.392 5.34278 117.796 5.09923 118.344 4.96223C118.892 4.81002 119.417 4.73391 119.919 4.73391C120.893 4.73391 121.731 4.9394 122.431 5.35039C123.146 5.76138 123.694 6.3322 124.075 7.06284C124.47 7.79349 124.668 8.64591 124.668 9.6201V16.2872Z" fill="#2E296D"/>
<path d="M130.012 16.4014C128.855 16.3405 127.98 16.0133 127.386 15.4196C126.793 14.8107 126.496 13.9735 126.496 12.908C126.496 12.1317 126.694 11.4696 127.09 10.9216C127.485 10.3584 128.01 9.91693 128.665 9.59727C129.32 9.27761 130.043 9.07973 130.834 9.00362C131.641 8.92751 132.455 8.98079 133.277 9.16345V8.45564C133.277 7.96854 133.079 7.61844 132.684 7.40533C132.288 7.19223 131.801 7.09328 131.222 7.10851C130.659 7.12373 130.088 7.23789 129.51 7.451C128.947 7.64888 128.49 7.93809 128.14 8.31864L126.61 6.65185C127.188 6.08865 127.873 5.64721 128.665 5.32756C129.457 5.0079 130.271 4.82524 131.108 4.77957C131.96 4.73391 132.76 4.83285 133.505 5.0764C134.267 5.31995 134.891 5.71571 135.378 6.2637C135.758 6.68991 135.971 7.25311 136.017 7.95332C136.063 8.65352 136.086 9.42222 136.086 10.2594V16.2872H133.3V15.2369C132.828 15.6784 132.303 15.9904 131.725 16.1731C131.146 16.3405 130.575 16.4166 130.012 16.4014ZM133.209 13.0678V11.1042C131.626 10.9825 130.522 11.0814 129.898 11.4011C129.289 11.7207 128.985 12.2154 128.985 12.8852C128.985 13.3114 129.129 13.6234 129.418 13.8213C129.723 14.004 130.096 14.0953 130.537 14.0953C130.994 14.0801 131.458 13.9888 131.93 13.8213C132.417 13.6387 132.843 13.3875 133.209 13.0678Z" fill="#2E296D"/>
<path d="M148.638 16.2872H145.898V9.6201C145.898 8.99601 145.777 8.53174 145.533 8.22731C145.305 7.90765 145.015 7.69455 144.665 7.58799C144.33 7.48144 144.003 7.42816 143.684 7.42816C143.379 7.42816 143.021 7.48144 142.61 7.58799C142.215 7.69455 141.865 7.90765 141.56 8.22731C141.256 8.53174 141.103 8.99601 141.103 9.6201V16.2872H138.364V4.8709H141.103V5.69288C141.362 5.34278 141.766 5.09923 142.314 4.96223C142.862 4.81002 143.387 4.73391 143.889 4.73391C144.863 4.73391 145.7 4.9394 146.401 5.35039C147.116 5.76138 147.664 6.3322 148.045 7.06284C148.44 7.79349 148.638 8.64591 148.638 9.6201V16.2872Z" fill="#2E296D"/>
<path d="M153.365 16.0818C152.696 15.7773 152.148 15.3359 151.722 14.7575C151.295 14.1638 150.976 13.4864 150.763 12.7253C150.565 11.9643 150.466 11.1803 150.466 10.3736C150.466 9.32328 150.656 8.37192 151.037 7.5195C151.417 6.66707 151.973 5.9897 152.703 5.48739C153.449 4.96984 154.363 4.71107 155.443 4.71107C155.793 4.71107 156.197 4.74913 156.653 4.82524C157.125 4.90135 157.506 5.04595 157.795 5.25906V0.304365H160.535V16.2872H157.795V15.3739C157.536 15.6784 157.14 15.9219 156.608 16.1046C156.075 16.272 155.512 16.3557 154.918 16.3557C154.34 16.371 153.822 16.2796 153.365 16.0818ZM157.795 13.0907V7.83915C157.003 7.5195 156.258 7.41294 155.557 7.5195C154.872 7.62605 154.309 7.92287 153.868 8.40997C153.442 8.88185 153.228 9.53638 153.228 10.3736C153.228 11.363 153.442 12.1469 153.868 12.7253C154.294 13.2886 154.85 13.6158 155.535 13.7072C156.235 13.7833 156.988 13.5778 157.795 13.0907Z" fill="#2E296D"/>
<path d="M172.733 16.2872H169.993V9.71143C169.993 8.93512 169.788 8.37192 169.377 8.02181C168.981 7.67171 168.433 7.49666 167.733 7.49666C167.094 7.49666 166.576 7.70216 166.18 8.11315C165.8 8.50891 165.61 8.92751 165.61 9.36894V16.2872H162.87V0.304365H165.61V5.48739C165.975 5.18295 166.409 4.98507 166.911 4.89374C167.429 4.78718 167.961 4.75674 168.509 4.8024C169.894 4.96984 170.945 5.50261 171.66 6.40069C172.376 7.28356 172.733 8.38714 172.733 9.71143V16.2872Z" fill="#2E296D"/>
<path d="M178.086 16.4014C176.929 16.3405 176.054 16.0133 175.46 15.4196C174.866 14.8107 174.569 13.9735 174.569 12.908C174.569 12.1317 174.767 11.4696 175.163 10.9216C175.559 10.3584 176.084 9.91693 176.738 9.59727C177.393 9.27761 178.116 9.07973 178.908 9.00362C179.714 8.92751 180.529 8.98079 181.351 9.16345V8.45564C181.351 7.96854 181.153 7.61844 180.757 7.40533C180.361 7.19223 179.874 7.09328 179.296 7.10851C178.733 7.12373 178.162 7.23789 177.583 7.451C177.02 7.64888 176.563 7.93809 176.213 8.31864L174.684 6.65185C175.262 6.08865 175.947 5.64721 176.738 5.32756C177.53 5.0079 178.344 4.82524 179.182 4.77957C180.034 4.73391 180.833 4.83285 181.579 5.0764C182.34 5.31995 182.964 5.71571 183.451 6.2637C183.832 6.68991 184.045 7.25311 184.091 7.95332C184.136 8.65352 184.159 9.42222 184.159 10.2594V16.2872H181.374V15.2369C180.902 15.6784 180.376 15.9904 179.798 16.1731C179.22 16.3405 178.649 16.4166 178.086 16.4014ZM181.282 13.0678V11.1042C179.699 10.9825 178.596 11.0814 177.971 11.4011C177.363 11.7207 177.058 12.2154 177.058 12.8852C177.058 13.3114 177.203 13.6234 177.492 13.8213C177.796 14.004 178.169 14.0953 178.611 14.0953C179.067 14.0801 179.532 13.9888 180.004 13.8213C180.491 13.6387 180.917 13.3875 181.282 13.0678Z" fill="#2E296D"/>
<path d="M186.437 16.2872V4.8709H189.154V5.71571C189.748 5.10684 190.456 4.81002 191.278 4.82524C192.115 4.84046 193.036 5.0079 194.04 5.32756L192.716 7.67932C192.138 7.48144 191.567 7.42055 191.004 7.49666C190.456 7.57277 190.007 7.74021 189.656 7.99898C189.306 8.25775 189.139 8.5698 189.154 8.93512V16.2872H186.437Z" fill="#2E296D"/>
</svg>
