<svg width="158" height="341" viewBox="0 0 158 341" fill="none" xmlns="http://www.w3.org/2000/svg">
<path d="M140.449 95.0537C151.425 70.7575 157.606 40.4937 157.606 10.4431C157.606 -61.6997 124.252 -108.268 72.6756 -108.268V-76.2988C123.08 -76.2988 125.637 -4.04939 125.637 10.4431C125.637 28.1325 123.186 45.9284 118.604 61.8062C114.342 57.3306 109.653 53.3878 104.751 50.1909C104.218 49.8712 103.685 49.5516 103.153 49.2319C101.021 47.9531 98.89 46.8875 96.6522 45.8219C95.48 45.2891 94.3078 44.7562 93.1356 44.33C91.0044 43.4775 88.7666 42.9447 86.5288 42.3053C85.4631 41.9856 84.2909 41.6659 83.2253 41.4528C79.8153 40.8134 76.2988 40.3872 72.5691 40.3872C41.5594 40.3872 16.3041 64.8966 16.3041 94.9472C16.3041 124.998 41.5594 149.507 72.5691 149.507C76.1922 149.507 79.6022 149.081 83.1188 148.442C84.2909 148.228 85.3566 147.802 86.5288 147.589C88.7666 147.056 91.0044 146.417 93.1356 145.564C94.3078 145.138 95.3735 144.605 96.4391 144.072C98.89 143.007 101.234 141.728 103.472 140.343C103.792 140.13 104.005 140.023 104.325 139.81C109.227 136.72 114.022 132.883 118.391 128.301C122.973 144.392 125.531 162.188 125.531 179.451C125.531 179.558 125.531 179.664 125.531 179.771C115.088 169.221 102.3 162.188 87.5944 159.311C87.1681 159.311 86.6353 159.098 86.2091 159.098C84.3975 158.778 82.5859 158.458 80.6678 158.245C78.0038 157.926 75.3397 157.819 72.5691 157.819C32.5016 157.819 0 189.255 0 227.937C0 266.619 32.6081 298.055 72.5691 298.055C75.4463 298.055 78.2169 297.842 81.0941 297.523C82.9056 297.309 84.7172 296.99 86.5288 296.777C86.955 296.777 87.3813 296.563 87.8075 296.563C102.3 293.793 115.088 286.973 125.637 276.317V276.53C125.637 304.449 119.563 332.368 108.907 353.148C103.046 364.55 90.6847 383.625 72.6756 383.625V415.594C98.6769 415.594 121.588 398.544 137.359 367.641C150.253 342.492 157.606 309.244 157.606 276.423C157.606 258.521 155.581 242.217 151.638 227.831C156.327 210.354 157.606 192.985 157.606 179.451C157.606 149.72 151.638 119.563 140.449 94.9472V95.0537ZM48.3794 95.0537C48.3794 82.5859 59.2488 72.4625 72.6756 72.4625C74.4872 72.4625 76.2988 72.6756 78.1103 73.1019C78.5366 73.1019 78.9628 73.4216 79.4956 73.5281C80.6678 73.8478 81.84 74.2741 83.0122 74.7003C84.0778 75.1266 85.0369 75.6594 85.9959 76.1922C86.1025 76.1922 86.3156 76.2988 86.4222 76.4053C92.816 80.4547 97.0785 87.2747 97.0785 95.0537C97.0785 102.833 93.0291 109.333 86.7419 113.489C86.5288 113.596 86.2091 113.809 85.9959 114.022C85.4631 114.342 84.8238 114.661 84.1844 114.874C82.7991 115.514 81.4137 116.047 79.9219 116.579C79.4956 116.686 79.1759 116.793 78.7497 116.899C76.8316 117.325 74.8069 117.645 72.7822 117.645C59.3553 117.645 48.4859 107.522 48.4859 95.0537H48.3794ZM32.0753 228.044C32.0753 206.944 50.2975 189.894 72.6756 189.894C95.0538 189.894 113.383 207.051 113.383 228.044C113.383 249.037 95.1603 266.193 72.6756 266.193C50.1909 266.193 32.0753 249.037 32.0753 228.044Z" fill="#84BC43"/>
</svg>
