<svg width="26" height="27" viewBox="0 0 26 27" fill="none" xmlns="http://www.w3.org/2000/svg">
<g clip-path="url(#clip0)">
<path d="M10.4291 6.90611C11.0784 6.63386 11.3506 5.859 11.0574 5.23073L10.0312 3.07368C9.73806 2.46656 9.02603 2.1941 8.39777 2.46656C6.61769 3.22048 5.08892 4.20477 3.87428 5.39848C2.3874 6.8014 1.38218 8.41395 0.837683 10.194C0.293189 11.9953 0 14.4453 0 17.5657V23.995C0 24.6861 0.565436 25.2515 1.25652 25.2515H9.48676C10.1778 25.2515 10.7433 24.6861 10.7433 23.995V15.7647C10.7433 15.0734 10.1778 14.5081 9.48676 14.5081H5.54965C5.59153 12.3928 6.09414 10.6967 7.01559 9.41897C7.76951 8.39322 8.90038 7.55553 10.4291 6.90611Z" fill="#251F54"/>
<path d="M25.2144 6.90613C25.8636 6.63388 26.1356 5.85902 25.8426 5.23075L24.8165 3.09485C24.5233 2.48752 23.8112 2.21528 23.183 2.48752C21.4238 3.24145 19.9158 4.22573 18.6804 5.3985C17.1933 6.82257 16.1674 8.43512 15.6227 10.2152C15.0782 11.9742 14.8062 14.4246 14.8062 17.5659V23.9952C14.8062 24.6863 15.3716 25.2518 16.0627 25.2518H24.2929C24.984 25.2518 25.5494 24.6863 25.5494 23.9952V15.7649C25.5494 15.0736 24.984 14.5084 24.2929 14.5084H20.3349C20.3767 12.393 20.8796 10.6969 21.8008 9.4192C22.5547 8.39324 23.6856 7.55555 25.2144 6.90613Z" fill="#251F54"/>
</g>
<defs>
<clipPath id="clip0">
<rect width="25.96" height="25.9602" fill="white" transform="translate(0 0.826172)"/>
</clipPath>
</defs>
</svg>
