<svg width="21" height="21" viewBox="0 0 21 21" fill="none" xmlns="http://www.w3.org/2000/svg">
<path fill-rule="evenodd" clip-rule="evenodd" d="M7.33331 14.9628C7.14584 14.7753 7.04053 14.5209 7.04053 14.2558C7.04053 13.9906 7.14584 13.7363 7.33331 13.5488L10.6263 10.2558L7.33331 6.96278C7.15116 6.77418 7.05036 6.52157 7.05264 6.25938C7.05492 5.99718 7.16009 5.74637 7.3455 5.56096C7.5309 5.37555 7.78172 5.27038 8.04391 5.2681C8.30611 5.26583 8.55871 5.36662 8.74731 5.54878L12.7473 9.54878C12.9348 9.73631 13.0401 9.99061 13.0401 10.2558C13.0401 10.5209 12.9348 10.7753 12.7473 10.9628L8.74731 14.9628C8.55979 15.1502 8.30548 15.2556 8.04031 15.2556C7.77515 15.2556 7.52084 15.1502 7.33331 14.9628Z" fill="#999999"/>
</svg>
