<svg width="64" height="56" viewBox="0 0 64 56" fill="none" xmlns="http://www.w3.org/2000/svg">
<path d="M13.0469 55.5011C8.90503 55.5011 5.66056 53.9134 3.3135 50.738C1.1045 47.4245 0 42.7994 0 36.8627C0 28.5789 1.86384 21.3997 5.59153 15.3249C9.31922 9.25019 14.7727 4.14188 21.9519 0L26.9222 8.07666C21.6758 11.5282 17.741 15.2559 15.1178 19.2597C12.4947 23.1255 11.1831 27.9576 11.1831 33.7563C11.5972 33.6182 12.2185 33.5492 13.0469 33.5492C15.8082 33.5492 18.2933 34.4466 20.5023 36.2414C22.8493 38.0362 24.0229 40.6594 24.0229 44.111C24.0229 47.5625 22.9874 50.3238 20.9165 52.3947C18.8455 54.4656 16.2223 55.5011 13.0469 55.5011ZM49.7025 55.5011C45.5606 55.5011 42.3161 53.9134 39.9691 50.738C37.7601 47.4245 36.6556 42.7994 36.6556 36.8627C36.6556 28.5789 38.5194 21.3997 42.2471 15.3249C45.9748 9.25019 51.4283 4.14188 58.6075 0L63.5778 8.07666C58.3314 11.5282 54.3966 15.2559 51.7734 19.2597C49.1502 23.1255 47.8386 27.9576 47.8386 33.7563C48.2528 33.6182 48.8741 33.5492 49.7025 33.5492C52.4637 33.5492 54.9488 34.4466 57.1578 36.2414C59.5049 38.0362 60.6785 40.6594 60.6785 44.111C60.6785 47.5625 59.643 50.3238 57.572 52.3947C55.5011 54.4656 52.8779 55.5011 49.7025 55.5011Z" fill="#B8D892"/>
</svg>
