<svg width="24" height="28" viewBox="0 0 24 28" fill="none" xmlns="http://www.w3.org/2000/svg">
<path d="M11.0626 15.975C11.5126 15.975 11.9251 15.6 11.9251 15.1125V9.48746C11.9251 7.46246 13.5751 5.81246 15.6001 5.81246H20.0626L17.8876 7.87496C17.5501 8.21246 17.5501 8.73746 17.8501 9.07496C18.0001 9.26246 18.2251 9.33746 18.4501 9.33746C18.6751 9.33746 18.8626 9.26246 19.0126 9.11246L22.4626 5.84996C22.6876 5.62496 22.8376 5.28746 22.8376 4.94996C22.8376 4.61246 22.6876 4.31246 22.4626 4.08746L19.0126 0.899963C18.6751 0.599963 18.1501 0.599963 17.8126 0.937463C17.5126 1.27496 17.5126 1.79996 17.8501 2.13746L20.0251 4.16246H15.5251C12.5626 4.16246 10.1626 6.56246 10.1626 9.52496V15.15C10.2376 15.6 10.6126 15.975 11.0626 15.975Z" fill="#797B75"/>
<path d="M22.1252 14.2875C21.6752 14.2875 21.2627 14.6625 21.2627 15.15V20.5875C21.2627 21.1875 20.7752 21.675 20.1752 21.675H3.8252C3.2252 21.675 2.7377 21.1875 2.7377 20.5875V15.1125C2.7377 14.6625 2.3627 14.25 1.8752 14.25C1.3877 14.25 1.0127 14.625 1.0127 15.1125V20.55C1.0127 22.0875 2.2502 23.325 3.7877 23.325H20.1752C21.7127 23.325 22.9502 22.0875 22.9502 20.55V15.1125C22.9877 14.6625 22.6127 14.2875 22.1252 14.2875Z" fill="#797B75"/>
</svg>
